<?xml version="1.0" standalone="no"?>
<!DOCTYPE svg PUBLIC "-//W3C//DTD SVG 20010904//EN"
 "http://www.w3.org/TR/2001/REC-SVG-20010904/DTD/svg10.dtd">
<svg version="1.0" xmlns="http://www.w3.org/2000/svg"
 width="400.000000pt" height="400.000000pt" viewBox="0 0 400.000000 400.000000"
 preserveAspectRatio="xMidYMid meet">
<metadata>
Created by potrace 1.14, written by Peter Selinger 2001-2017
</metadata>
<g transform="translate(0.000000,400.000000) scale(0.100000,-0.100000)"
fill="#000000" stroke="none">
<path d="M1196 3991 c-3 -5 -15 -7 -26 -4 -11 3 -20 1 -20 -4 0 -5 -10 -9 -22
-10 -11 -1 -25 -8 -29 -15 -7 -10 -9 -10 -9 2 0 11 -2 12 -8 3 -5 -7 -21 -14
-38 -15 -16 -1 -34 -5 -40 -10 -6 -4 -23 -9 -37 -10 -15 -1 -29 -9 -32 -16 -4
-11 -8 -12 -20 -2 -10 8 -15 9 -15 2 0 -6 -7 -9 -15 -6 -8 4 -15 1 -15 -7 0
-7 -3 -10 -6 -6 -3 3 -23 -1 -44 -8 -21 -7 -42 -10 -46 -7 -4 4 -5 2 -1 -4 3
-6 -13 -16 -39 -23 -24 -7 -44 -17 -44 -23 0 -5 -4 -7 -9 -3 -6 3 -14 -3 -20
-12 -6 -10 -11 -15 -11 -10 0 4 -14 0 -30 -8 -18 -9 -28 -21 -24 -27 4 -7 3
-8 -5 -4 -18 11 -159 -104 -154 -125 2 -5 -5 -5 -14 -2 -11 4 -14 2 -9 -5 3
-6 -3 -16 -14 -22 -12 -7 -19 -18 -16 -26 3 -7 1 -13 -3 -11 -5 1 -20 -10 -34
-25 -14 -16 -24 -28 -21 -28 3 0 -6 -11 -20 -23 -14 -13 -23 -27 -19 -30 3 -4
-2 -9 -11 -13 -9 -3 -16 -12 -16 -20 0 -8 -5 -14 -11 -14 -5 0 -8 -4 -5 -8 3
-5 -4 -18 -14 -30 -11 -12 -20 -26 -20 -31 0 -5 -9 -26 -21 -45 -12 -20 -18
-36 -14 -36 4 0 2 -7 -5 -15 -6 -8 -9 -18 -6 -24 3 -5 1 -11 -4 -13 -6 -2 -12
-13 -13 -26 0 -12 -5 -22 -10 -22 -5 0 -7 -6 -4 -14 3 -8 1 -17 -6 -20 -8 -3
-8 -5 1 -5 10 -1 10 -5 -2 -17 -9 -8 -14 -20 -11 -25 4 -5 2 -9 -3 -9 -5 0 -7
-11 -4 -25 2 -14 0 -25 -6 -25 -6 0 -9 -9 -7 -20 2 -11 -1 -20 -7 -20 -6 0 -8
-3 -5 -7 4 -3 1 -13 -6 -21 -10 -13 -9 -14 3 -7 12 7 13 6 3 -7 -7 -8 -10 -18
-6 -21 3 -4 1 -7 -6 -7 -9 0 -9 -5 0 -21 7 -13 7 -19 1 -15 -6 3 -13 2 -17 -4
-3 -5 -1 -10 6 -10 8 0 6 -7 -5 -19 -11 -12 -13 -21 -7 -25 6 -4 8 -13 5 -21
-4 -8 -9 -13 -13 -10 -4 2 -8 -2 -8 -10 0 -8 5 -11 10 -8 6 4 3 -4 -6 -17 -12
-17 -14 -27 -6 -37 8 -9 7 -14 -4 -19 -9 -3 -13 -12 -10 -20 3 -8 0 -14 -6
-14 -8 0 -10 -215 -7 -757 2 -417 5 -764 6 -770 2 -7 6 -13 9 -13 4 0 8 -12 9
-26 1 -15 7 -33 13 -40 6 -8 8 -14 4 -14 -4 0 -2 -6 4 -13 6 -8 8 -17 4 -20
-3 -4 -1 -7 5 -7 6 0 9 -7 6 -15 -4 -9 0 -15 7 -15 11 0 11 -2 -1 -10 -12 -8
-12 -10 3 -16 12 -4 14 -10 8 -18 -6 -7 -4 -18 5 -30 7 -10 11 -23 8 -27 -3
-5 -1 -9 5 -9 5 0 8 -9 6 -20 -2 -11 1 -20 6 -20 6 0 7 -4 4 -10 -3 -5 -2 -10
3 -10 6 0 13 -7 16 -16 4 -10 2 -13 -7 -8 -8 5 -7 2 2 -9 7 -9 10 -17 5 -17
-5 0 -1 -5 9 -11 9 -6 15 -14 12 -20 -4 -5 -1 -9 4 -9 6 0 11 -7 11 -14 0 -16
57 -106 74 -118 7 -5 7 -8 1 -8 -5 0 -2 -5 8 -11 9 -5 17 -17 17 -25 0 -8 4
-12 10 -9 6 3 10 -4 10 -16 0 -12 3 -20 6 -16 8 8 33 -16 27 -26 -2 -4 3 -7
11 -7 9 0 16 -7 16 -15 0 -8 5 -15 10 -15 6 0 10 -5 10 -11 0 -14 26 -39 40
-39 6 0 8 -5 5 -11 -4 -5 5 -21 20 -35 14 -13 24 -24 21 -24 -3 0 7 -12 21
-27 14 -16 30 -27 35 -25 5 1 7 -1 5 -5 -3 -5 1 -17 9 -28 8 -10 14 -15 14
-11 0 5 12 -5 28 -20 15 -16 34 -30 42 -32 8 -2 17 -7 20 -12 3 -5 12 -10 20
-12 8 -2 23 -12 33 -22 9 -10 17 -16 17 -11 0 4 7 2 15 -5 8 -7 15 -9 15 -6 0
4 7 0 16 -9 9 -9 23 -14 31 -11 8 3 12 2 9 -2 -3 -5 18 -16 47 -26 29 -10 59
-21 67 -24 8 -3 20 -7 25 -7 6 -1 19 -6 30 -11 25 -11 1865 -12 1920 -1 22 5
50 9 63 10 12 1 22 5 22 9 0 4 8 7 18 7 35 1 64 8 70 17 4 5 18 10 32 12 13 1
27 6 30 10 3 4 12 7 20 7 8 0 21 5 28 12 8 7 18 11 23 8 5 -4 9 -1 9 6 0 7 3
9 6 6 4 -3 16 0 28 8 11 8 28 15 37 15 9 0 22 7 29 15 7 8 16 12 21 9 5 -3 9
0 9 6 0 6 5 8 10 5 6 -3 10 1 10 9 0 9 3 15 8 15 19 -3 33 2 27 11 -3 6 1 7 9
4 9 -4 18 1 22 10 3 9 10 14 14 11 4 -3 10 2 14 10 3 8 11 15 18 15 8 0 20 9
28 19 7 11 17 18 21 15 4 -2 10 5 14 15 3 11 15 23 26 26 11 4 18 9 15 12 -7
7 17 32 27 26 4 -2 7 1 7 7 0 13 12 29 63 81 21 21 35 39 32 39 -3 0 5 10 18
22 13 13 26 31 30 41 3 9 11 17 17 17 6 0 9 4 6 8 -3 5 4 21 15 38 10 16 19
39 19 52 0 12 5 22 11 22 5 0 8 4 4 9 -3 5 -1 12 5 16 15 9 12 27 -2 20 -7 -4
-6 -1 2 7 8 7 16 22 18 33 2 11 6 27 9 35 4 8 8 22 9 30 1 8 5 24 10 34 5 14
4 17 -5 11 -8 -4 -6 3 3 18 13 20 14 26 4 30 -11 4 -11 6 0 6 7 1 10 6 7 11
-3 6 -1 10 5 10 6 0 8 5 5 10 -4 6 -1 17 5 25 9 11 9 15 1 15 -8 0 -9 5 -2 19
6 10 7 21 4 25 -3 3 -1 6 5 6 7 0 12 5 12 11 0 5 -6 7 -12 3 -10 -5 -10 -4 -1
6 6 7 9 19 6 26 -3 8 -1 14 4 14 5 0 10 12 11 28 1 15 3 41 5 59 1 17 6 29 10
26 5 -3 7 3 6 13 -2 11 0 25 4 32 5 6 6 12 2 12 -3 0 -1 10 6 21 9 17 8 20 -3
13 -10 -6 -11 -5 -1 7 10 12 10 18 0 28 -9 10 -9 11 4 6 13 -5 16 -1 14 19 -2
15 2 26 8 26 8 0 7 3 -2 9 -9 6 -10 11 -2 15 6 4 9 12 6 17 -4 5 0 9 7 9 9 0
9 3 -2 10 -12 8 -12 10 -1 10 11 0 11 3 0 17 -10 11 -10 14 -1 9 12 -7 15 10
14 82 0 17 5 32 12 32 6 0 4 5 -4 10 -8 5 -10 10 -4 10 16 0 19 1146 3 1155
-6 4 -8 13 -5 21 3 8 2 14 -2 14 -4 0 -9 12 -10 27 -1 15 -8 30 -15 35 -9 6
-8 8 2 8 11 0 10 4 -5 16 -10 8 -12 12 -4 8 13 -7 13 -5 1 9 -7 9 -11 17 -7
17 4 0 -1 15 -11 33 -9 17 -17 42 -16 55 0 12 -4 22 -9 22 -6 0 -7 7 -4 15 3
9 -1 18 -9 21 -7 3 -11 12 -8 20 3 8 -3 26 -12 40 -9 15 -12 23 -6 20 7 -5 9
-1 5 8 -3 9 -9 16 -13 16 -4 0 -8 12 -9 27 -1 15 -5 29 -10 32 -4 3 -8 13 -10
21 -2 8 -8 17 -13 18 -5 2 -9 12 -9 22 0 9 -7 23 -15 30 -9 7 -13 15 -10 18 2
3 -9 18 -25 34 -16 15 -28 28 -25 28 3 0 -3 9 -12 19 -9 11 -21 17 -26 14 -6
-4 -8 1 -4 11 4 10 1 19 -8 22 -8 4 -12 10 -9 15 3 5 -2 9 -10 9 -9 0 -16 6
-16 13 0 6 -16 27 -35 44 -19 18 -35 37 -35 42 0 5 -16 19 -35 31 -19 12 -35
25 -35 30 0 4 -13 13 -30 20 -16 7 -30 17 -30 22 0 6 -8 7 -17 4 -10 -4 -14
-4 -11 0 8 8 -16 34 -31 34 -6 0 -11 5 -11 10 0 6 -3 9 -7 9 -20 -3 -34 2 -28
11 3 6 -1 10 -10 10 -9 0 -25 9 -37 20 -12 11 -28 20 -35 20 -7 0 -13 5 -13
10 0 6 -7 10 -15 10 -8 0 -15 5 -15 10 0 6 -6 10 -14 10 -7 0 -19 7 -26 15 -7
8 -16 12 -21 9 -5 -3 -9 0 -9 6 0 6 -4 8 -10 5 -5 -3 -10 -1 -10 5 0 6 -4 9
-9 6 -5 -4 -11 -2 -13 3 -1 5 -10 11 -18 13 -8 2 -18 7 -21 11 -4 5 -18 10
-32 10 -14 1 -23 5 -21 8 2 4 -13 9 -34 13 -60 10 -1780 7 -1786 -3z"/>
</g>
</svg>
